<svg xmlns="http://www.w3.org/2000/svg" width="54" height="71.814" viewBox="0 0 54 71.814">
  <path id="Trazado_13073" data-name="Trazado 13073" d="M124.25,27A11.25,11.25,0,1,1,113,15.75,11.247,11.247,0,0,1,124.25,27ZM113,33.75A6.75,6.75,0,1,0,106.25,27,6.752,6.752,0,0,0,113,33.75ZM140,27c0,12.291-16.453,34.172-23.667,43.2a4.249,4.249,0,0,1-6.666,0C102.327,61.172,86,39.291,86,27a27,27,0,0,1,54,0ZM113,4.5A22.494,22.494,0,0,0,90.5,27a24.681,24.681,0,0,0,2.329,8.916,87.115,87.115,0,0,0,6.128,11.545A210.316,210.316,0,0,0,113,67.162a211.272,211.272,0,0,0,14.048-19.7,87.471,87.471,0,0,0,6.117-11.545A24.507,24.507,0,0,0,135.5,27,22.494,22.494,0,0,0,113,4.5Z" transform="translate(-86)"/>
</svg>
