<svg xmlns="http://www.w3.org/2000/svg" width="90" height="56.25" viewBox="0 0 90 56.25">
  <path id="Trazado_13075" data-name="Trazado 13075" d="M158,56.25a2.249,2.249,0,0,1-2.25,2.25H149a6.739,6.739,0,0,1-6.335-4.5H138.21a6.348,6.348,0,0,1-.941,1.806l-1.279,1.582a6.542,6.542,0,0,1-8.073,1.683l-2.85,3.511A7.247,7.247,0,0,1,114.9,63.624l-.857-.743a10.773,10.773,0,0,1-5.657,2.312,10.018,10.018,0,0,1-1.135.057,10.73,10.73,0,0,1-6.8-2.426L89.023,54H83.342A6.755,6.755,0,0,1,77,58.5H72.5a2.25,2.25,0,0,1,0-4.5l4.5-.009a2.246,2.246,0,0,0,2.25-2.242V22.5h-9a2.25,2.25,0,0,1,0-4.5H86.408a31.065,31.065,0,0,1,17.269-8.686,2.249,2.249,0,0,1,.647,4.452A26.62,26.62,0,0,0,89,21.783l-.661.689L83.75,22.5v27h6.8l12.7,9.8a6.33,6.33,0,0,0,4.669,1.415,6.231,6.231,0,0,0,4.231-2.289l1.484-1.481,1.775,1.169,2.384,2.074a2.724,2.724,0,0,0,3.781-.448l5.625-6.926,2.469,2.07a2.033,2.033,0,0,0,2.817-.325l1.279-1.582a2.028,2.028,0,0,0-.3-2.839l-15.258-12.39a2.251,2.251,0,1,1,2.84-3.494L136.31,46.647a6.337,6.337,0,0,1,1.9,2.852h4.039v-27h-4.544l-.661-.675A27.041,27.041,0,0,0,118.006,13.5h-1.149a2.023,2.023,0,0,0-1.373.552L102.369,26.325a3.227,3.227,0,0,0-.183,4.5,3.629,3.629,0,0,0,2.264,1.027,2.9,2.9,0,0,0,2.056-.8l.09.1c1.159-1.28,3.943-3.867,10.637-10.083a2.25,2.25,0,1,1,3.063,3.3L109.541,34.369a7.285,7.285,0,0,1-4.95,1.983c-.121,0-.242,0-.365-.009a7.942,7.942,0,0,1-5.373-2.508,7.674,7.674,0,0,1,.244-10.6l.051-.058,13.285-12.423A6.517,6.517,0,0,1,116.853,9H118a31.475,31.475,0,0,1,21.572,9H155.75a2.25,2.25,0,0,1,0,4.5h-9V51.75A2.232,2.232,0,0,0,148.873,54h6.877A2.257,2.257,0,0,1,158,56.25Z" transform="translate(-68 -9)"/>
</svg>
