<svg xmlns="http://www.w3.org/2000/svg" width="90" height="58.5" viewBox="0 0 90 58.5">
  <path id="Trazado_13074" data-name="Trazado 13074" d="M79.7,18a9,9,0,1,1,9,9A9,9,0,0,1,79.7,18Zm9,4.5A4.5,4.5,0,1,0,84.2,18,4.5,4.5,0,0,0,88.7,22.5ZM129.2,18a9,9,0,1,1,9,9A9,9,0,0,1,129.2,18Zm9,4.5a4.5,4.5,0,1,0-4.5-4.5A4.5,4.5,0,0,0,138.2,22.5Zm-45.225,27a13.423,13.423,0,0,1,13.5-13.5h13.5a13.423,13.423,0,0,1,13.5,13.5,4.5,4.5,0,0,1-4.5,4.5h-31.5A4.5,4.5,0,0,1,92.975,49.5Zm13.5-9a9.008,9.008,0,0,0-9,9h31.5a9.008,9.008,0,0,0-9-9Zm-4.5-20.25a11.25,11.25,0,1,1,11.25,11.25A11.249,11.249,0,0,1,101.975,20.25ZM113.225,27a6.75,6.75,0,1,0-6.75-6.75A6.752,6.752,0,0,0,113.225,27ZM77,42.75a2.25,2.25,0,0,1-4.5,0V40.5a9,9,0,0,1,9-9H93.875a2.25,2.25,0,0,1,0,4.5H81.5A4.5,4.5,0,0,0,77,40.5ZM132.125,36a2.25,2.25,0,0,1,0-4.5H144.5a9.008,9.008,0,0,1,9,9v2.25a2.25,2.25,0,0,1-4.5,0V40.5a4.5,4.5,0,0,0-4.5-4.5ZM155.75,63a2.25,2.25,0,0,1,0,4.5H70.25a2.25,2.25,0,0,1,0-4.5Z" transform="translate(-68 -9)"/>
</svg>
