<svg xmlns="http://www.w3.org/2000/svg" width="90" height="63" viewBox="0 0 90 63">
  <path id="Trazado_13072" data-name="Trazado 13072" d="M89.375,23.625a7.875,7.875,0,0,1,0,15.75H83.75v6.75a2.25,2.25,0,0,1-4.5,0V25.875a2.253,2.253,0,0,1,2.25-2.25ZM92.75,31.5a3.367,3.367,0,0,0-3.375-3.375H83.75v6.75h5.625A3.367,3.367,0,0,0,92.75,31.5Zm9-5.625a2.257,2.257,0,0,1,2.25-2.25h7.875a7.87,7.87,0,0,1,3.53,14.906l4.008,6.4a2.255,2.255,0,0,1-3.825,2.391l-4.964-7.945h-4.5v6.75a2.179,2.179,0,0,1-2.25,2.25,2.343,2.343,0,0,1-2.25-2.25Zm4.5,9h5.625a3.375,3.375,0,0,0,0-6.75H106.25Zm40.5,0v2.25a11.25,11.25,0,0,1-22.5,0v-2.25a11.25,11.25,0,0,1,22.5,0Zm-18,2.25a6.75,6.75,0,0,0,13.5,0v-2.25a6.75,6.75,0,0,0-13.5,0ZM68,13.5a9,9,0,0,1,9-9h72a9,9,0,0,1,9,9v45a9.008,9.008,0,0,1-9,9H77a9,9,0,0,1-9-9Zm4.5,0v45A4.5,4.5,0,0,0,77,63h72a4.5,4.5,0,0,0,4.5-4.5v-45A4.5,4.5,0,0,0,149,9H77A4.5,4.5,0,0,0,72.5,13.5Z" transform="translate(-68 -4.5)"/>
</svg>
